<svg xmlns="http://www.w3.org/2000/svg" viewBox="0 0 520 200" width="520" height="200">
  <defs>
    <style>@import url('https://fonts.googleapis.com/css2?family=Nunito:wght@700;800;900&amp;display=swap');</style>

    <!-- Cat: blue-grey/white tricolor variant -->
    <radialGradient id="bodyN" cx="50%" cy="40%" r="55%">
      <stop offset="0%" stop-color="#f0f4ff"/>
      <stop offset="100%" stop-color="#c8d8f0"/>
    </radialGradient>
    <radialGradient id="bellyN" cx="50%" cy="50%" r="60%">
      <stop offset="0%" stop-color="#ffffff"/>
      <stop offset="100%" stop-color="#e8f0ff"/>
    </radialGradient>
    <radialGradient id="coinN" cx="40%" cy="35%" r="60%">
      <stop offset="0%" stop-color="#e8f4ff"/>
      <stop offset="100%" stop-color="#90caf9"/>
    </radialGradient>
    <radialGradient id="markN" cx="50%" cy="50%" r="60%">
      <stop offset="0%" stop-color="#1565c0"/>
      <stop offset="100%" stop-color="#0d47a1"/>
    </radialGradient>

    <!-- Red accent for collar -->
    <linearGradient id="collarN" x1="0%" y1="0%" x2="100%" y2="0%">
      <stop offset="0%" stop-color="#c62828"/>
      <stop offset="50%" stop-color="#ef5350"/>
      <stop offset="100%" stop-color="#c62828"/>
    </linearGradient>

    <!-- Gold for bell/coin -->
    <radialGradient id="goldN" cx="40%" cy="35%" r="60%">
      <stop offset="0%" stop-color="#fff9c4"/>
      <stop offset="100%" stop-color="#f9a825"/>
    </radialGradient>

    <filter id="shadowN" x="-20%" y="-20%" width="140%" height="140%">
      <feDropShadow dx="0" dy="4" stdDeviation="5" flood-color="#5c7abf" flood-opacity="0.25"/>
    </filter>

    <!-- patch on head (blue-grey tabby mark) -->
    <radialGradient id="patchN" cx="50%" cy="50%" r="60%">
      <stop offset="0%" stop-color="#7986cb"/>
      <stop offset="100%" stop-color="#3949ab"/>
    </radialGradient>
  </defs>

  <!-- ══════════════ CAT (left) ══════════════ -->
  <g transform="translate(14, 10)" filter="url(#shadowN)">

    <!-- TAIL -->
    <path d="M 108 148 Q 135 120 125 95 Q 118 78 105 90 Q 115 100 112 118 Q 108 135 100 148 Z"
          fill="url(#bodyN)" stroke="#8fa8d0" stroke-width="1.5"/>
    <!-- tail tip: blue patch -->
    <path d="M 105 90 Q 118 78 125 95 Q 120 85 110 88 Z" fill="#7986cb" stroke="#5c6bc0" stroke-width="1"/>

    <!-- BODY -->
    <ellipse cx="75" cy="130" rx="38" ry="42" fill="url(#bodyN)" stroke="#8fa8d0" stroke-width="1.5"/>
    <!-- back blue patch -->
    <ellipse cx="88" cy="118" rx="16" ry="20" fill="url(#patchN)" opacity="0.35"/>

    <!-- BELLY -->
    <ellipse cx="75" cy="135" rx="22" ry="28" fill="url(#bellyN)" stroke="#c8d8f0" stroke-width="1"/>

    <!-- LEFT ARM (down, holding coin) -->
    <path d="M 45 118 Q 32 125 30 140 Q 30 150 40 152 Q 50 154 52 144 Q 54 132 50 120 Z"
          fill="url(#bodyN)" stroke="#8fa8d0" stroke-width="1.5"/>
    <ellipse cx="36" cy="149" rx="10" ry="7" fill="#e8f0ff" stroke="#8fa8d0" stroke-width="1.2"/>
    <line x1="30" y1="150" x2="31" y2="156" stroke="#7986cb" stroke-width="1" stroke-linecap="round"/>
    <line x1="36" y1="152" x2="36" y2="158" stroke="#7986cb" stroke-width="1" stroke-linecap="round"/>
    <line x1="42" y1="150" x2="41" y2="156" stroke="#7986cb" stroke-width="1" stroke-linecap="round"/>

    <!-- COIN -->
    <circle cx="50" cy="130" r="13" fill="url(#goldN)" stroke="#f9a825" stroke-width="1.5"/>
    <text x="50" y="135" text-anchor="middle" font-size="10" font-weight="bold" fill="#1565c0" font-family="serif">学</text>

    <!-- RIGHT ARM (raised) -->
    <path d="M 105 118 Q 120 108 124 90 Q 128 72 118 65 Q 108 60 104 72 Q 100 84 104 100 Q 106 110 106 120 Z"
          fill="url(#bodyN)" stroke="#8fa8d0" stroke-width="1.5"/>
    <ellipse cx="121" cy="62" rx="10" ry="8" fill="#e8f0ff" stroke="#8fa8d0" stroke-width="1.2"/>
    <line x1="115" y1="58" x2="113" y2="52" stroke="#7986cb" stroke-width="1" stroke-linecap="round"/>
    <line x1="121" y1="56" x2="121" y2="50" stroke="#7986cb" stroke-width="1" stroke-linecap="round"/>
    <line x1="127" y1="58" x2="129" y2="52" stroke="#7986cb" stroke-width="1" stroke-linecap="round"/>

    <!-- HEAD -->
    <circle cx="75" cy="82" r="34" fill="url(#bodyN)" stroke="#8fa8d0" stroke-width="1.8"/>

    <!-- Blue patch on head (left side) -->
    <ellipse cx="58" cy="74" rx="14" ry="18" fill="url(#patchN)" opacity="0.4"/>

    <!-- EARS -->
    <path d="M 50 60 L 44 42 L 62 52 Z" fill="url(#bodyN)" stroke="#8fa8d0" stroke-width="1.5"/>
    <path d="M 51 57 L 47 46 L 59 53 Z" fill="#b0c4e8"/>
    <path d="M 100 60 L 106 42 L 88 52 Z" fill="url(#bodyN)" stroke="#8fa8d0" stroke-width="1.5"/>
    <path d="M 99 57 L 103 46 L 91 53 Z" fill="#b0c4e8"/>

    <!-- Left ear has blue patch -->
    <path d="M 51 57 L 47 46 L 59 53 Z" fill="#7986cb" opacity="0.6"/>

    <!-- EYES -->
    <!-- Left (on blue patch side) - slightly different tone -->
    <ellipse cx="63" cy="78" rx="7" ry="8" fill="white" stroke="#7986cb" stroke-width="1.2"/>
    <ellipse cx="64" cy="79" rx="4" ry="5" fill="#1a237e"/>
    <circle cx="65" cy="77" r="1.8" fill="white"/>
    <!-- Right -->
    <ellipse cx="87" cy="78" rx="7" ry="8" fill="white" stroke="#7986cb" stroke-width="1.2"/>
    <ellipse cx="88" cy="79" rx="4" ry="5" fill="#1a237e"/>
    <circle cx="89" cy="77" r="1.8" fill="white"/>

    <!-- NOSE -->
    <path d="M 73 89 L 75 87 L 77 89 L 75 91 Z" fill="#b0c4e8"/>
    <!-- MOUTH -->
    <path d="M 75 91 Q 70 95 68 93" stroke="#7986cb" stroke-width="1.2" fill="none" stroke-linecap="round"/>
    <path d="M 75 91 Q 80 95 82 93" stroke="#7986cb" stroke-width="1.2" fill="none" stroke-linecap="round"/>

    <!-- WHISKERS -->
    <line x1="55" y1="89" x2="40" y2="86" stroke="#8fa8d0" stroke-width="0.9" stroke-linecap="round" opacity="0.8"/>
    <line x1="55" y1="91" x2="40" y2="91" stroke="#8fa8d0" stroke-width="0.9" stroke-linecap="round" opacity="0.8"/>
    <line x1="55" y1="93" x2="41" y2="96" stroke="#8fa8d0" stroke-width="0.9" stroke-linecap="round" opacity="0.8"/>
    <line x1="95" y1="89" x2="110" y2="86" stroke="#8fa8d0" stroke-width="0.9" stroke-linecap="round" opacity="0.8"/>
    <line x1="95" y1="91" x2="110" y2="91" stroke="#8fa8d0" stroke-width="0.9" stroke-linecap="round" opacity="0.8"/>
    <line x1="95" y1="93" x2="109" y2="96" stroke="#8fa8d0" stroke-width="0.9" stroke-linecap="round" opacity="0.8"/>

    <!-- COLLAR: deep red/crimson -->
    <path d="M 47 103 Q 75 115 103 103" stroke="url(#collarN)" stroke-width="5.5" fill="none" stroke-linecap="round"/>
    <path d="M 47 103 Q 75 115 103 103" stroke="rgba(255,120,120,0.5)" stroke-width="2" fill="none" stroke-linecap="round"/>
    <!-- Bell: gold -->
    <circle cx="75" cy="114" r="5.5" fill="url(#goldN)" stroke="#f9a825" stroke-width="1.2"/>
    <line x1="75" y1="117" x2="75" y2="120" stroke="#f9a825" stroke-width="1.2"/>

    <!-- Sparkles -->
    <text x="128" y="52" font-size="11" opacity="0.6">✨</text>
    <text x="16" y="46" font-size="8" opacity="0.45">⭐</text>
  </g>

  <!-- ══════════════ LOGOTYPE (right) ══════════════ -->

  <!-- EdTech small -->
  <text x="178" y="78"
        font-family="'Nunito', Arial Rounded MT Bold, sans-serif"
        font-size="16" font-weight="800"
        fill="#1565c0" letter-spacing="2">EdTech</text>

  <!-- NIHONGO large -->
  <text x="172" y="138"
        font-family="'Nunito', Arial Rounded MT Bold, sans-serif"
        font-size="58" font-weight="900"
        fill="#0d47a1" letter-spacing="1">NIHONGO</text>

  <!-- divider line -->
  <line x1="178" y1="148" x2="508" y2="148" stroke="#1565c0" stroke-width="1.5" opacity="0.25"/>

  <!-- tagline -->
  <text x="178" y="170"
        font-family="'Nunito', Arial, sans-serif"
        font-size="11" font-weight="700"
        fill="#1565c0" letter-spacing="2.5" opacity="0.7">JFT-Basic対応学習プラットフォーム</text>

</svg>
